<svg width="166" height="36" viewBox="0 0 166 36" fill="none" xmlns="http://www.w3.org/2000/svg">
<path d="M56.574 1.6H59.28V17H56.75V6.022L52.064 13.766H51.756L47.07 6V17H44.54V1.6H47.268L51.91 9.3L56.574 1.6ZM64.8805 1.6V14.58H71.1505V17H62.3505V1.6H64.8805ZM84.5783 17H81.8063L78.5503 11.39H75.5583V17H73.0283V1.6H79.1883C80.5743 1.6 81.7403 2.084 82.6863 3.052C83.6543 3.998 84.1383 5.164 84.1383 6.55C84.1383 8.508 82.9063 10.29 81.0803 11.016L84.5783 17ZM79.1883 3.976H75.5583V9.124H79.1883C80.5303 9.124 81.6083 7.98 81.6083 6.55C81.6083 5.12 80.5303 3.976 79.1883 3.976Z" fill="#404ED1"/>
<path d="M43.7885 25.1147H46.6948C47.4383 25.1147 48.0578 25.3626 48.5535 25.8582C49.0604 26.3539 49.3082 26.9734 49.3082 27.7056C49.3082 28.4378 49.0604 29.0461 48.5535 29.553C48.0578 30.0487 47.4383 30.2965 46.6948 30.2965H45.084V33H43.7885V25.1147ZM45.084 29.0799H46.6948C47.4608 29.0799 48.0128 28.5054 48.0128 27.7056C48.0128 26.9058 47.4608 26.3313 46.6948 26.3313H45.084V29.0799ZM52.6165 33.1464C51.7942 33.1464 51.0845 32.8648 50.51 32.2903C49.9355 31.7158 49.6426 31.0174 49.6426 30.1838C49.6426 29.3503 49.9355 28.6518 50.51 28.0773C51.0845 27.5029 51.7942 27.2212 52.6165 27.2212C53.4501 27.2212 54.1485 27.5029 54.723 28.0773C55.2975 28.6518 55.5904 29.3503 55.5904 30.1838C55.5904 31.0174 55.2975 31.7158 54.723 32.2903C54.1485 32.8648 53.4501 33.1464 52.6165 33.1464ZM51.3661 31.4567C51.7041 31.7947 52.1208 31.9637 52.6165 31.9637C53.1121 31.9637 53.5289 31.7947 53.8669 31.4567C54.2048 31.1188 54.3738 30.6907 54.3738 30.1838C54.3738 29.6769 54.2048 29.2489 53.8669 28.9109C53.5289 28.573 53.1121 28.404 52.6165 28.404C52.1208 28.404 51.7041 28.573 51.3661 28.9109C51.0282 29.2489 50.8592 29.6769 50.8592 30.1838C50.8592 30.6907 51.0282 31.1188 51.3661 31.4567ZM61.8549 31.254L62.9588 27.3677H64.243L62.4745 33H61.2804L60.1089 29.2038L58.9261 33H57.732L55.9635 27.3677H57.2477L58.3403 31.254L59.5231 27.3677H60.6834L61.8549 31.254ZM70.3597 30.702H65.8764C66.0566 31.5581 66.7438 32.0312 67.6787 32.0312C68.3208 32.0312 68.8052 31.7947 69.1319 31.3328L70.1344 31.9186C69.5825 32.7409 68.7601 33.1464 67.6675 33.1464C66.755 33.1464 66.0116 32.8648 65.4483 32.3129C64.8851 31.7496 64.6035 31.04 64.6035 30.1838C64.6035 29.339 64.8851 28.6406 65.4371 28.0773C65.989 27.5029 66.71 27.2212 67.5773 27.2212C68.3997 27.2212 69.0755 27.5141 69.605 28.0886C70.1344 28.6631 70.4048 29.3728 70.4048 30.1951C70.4048 30.319 70.3935 30.488 70.3597 30.702ZM65.8651 29.7107H69.1769C69.008 28.7983 68.3659 28.3252 67.5661 28.3252C66.6649 28.3252 66.0341 28.8546 65.8651 29.7107ZM72.6918 27.3677V28.3139C72.996 27.6155 73.5818 27.2663 74.4266 27.2663V28.5843C73.9648 28.5505 73.5592 28.6631 73.21 28.9222C72.8608 29.17 72.6918 29.5868 72.6918 30.1613V33H71.4753V27.3677H72.6918ZM80.5023 30.702H76.019C76.1992 31.5581 76.8863 32.0312 77.8213 32.0312C78.4634 32.0312 78.9478 31.7947 79.2744 31.3328L80.277 31.9186C79.725 32.7409 78.9027 33.1464 77.81 33.1464C76.8976 33.1464 76.1541 32.8648 75.5909 32.3129C75.0277 31.7496 74.7461 31.04 74.7461 30.1838C74.7461 29.339 75.0277 28.6406 75.5796 28.0773C76.1316 27.5029 76.8526 27.2212 77.7199 27.2212C78.5422 27.2212 79.2181 27.5141 79.7476 28.0886C80.277 28.6631 80.5474 29.3728 80.5474 30.1951C80.5474 30.319 80.5361 30.488 80.5023 30.702ZM76.0077 29.7107H79.3195C79.1505 28.7983 78.5085 28.3252 77.7087 28.3252C76.8075 28.3252 76.1767 28.8546 76.0077 29.7107ZM86.0456 28.1675V25.1147H87.2622V33H86.0456V32.1889C85.5838 32.831 84.9304 33.1464 84.0743 33.1464C83.2971 33.1464 82.6437 32.8648 82.0918 32.2903C81.5398 31.7158 81.2694 31.0062 81.2694 30.1838C81.2694 29.3503 81.5398 28.6518 82.0918 28.0773C82.6437 27.5029 83.2971 27.2212 84.0743 27.2212C84.9304 27.2212 85.5838 27.5366 86.0456 28.1675ZM82.9929 31.4793C83.3309 31.8172 83.7589 31.9862 84.2658 31.9862C84.7727 31.9862 85.2008 31.8172 85.5387 31.4793C85.8767 31.1301 86.0456 30.702 86.0456 30.1838C86.0456 29.6657 85.8767 29.2376 85.5387 28.8997C85.2008 28.5505 84.7727 28.3815 84.2658 28.3815C83.7589 28.3815 83.3309 28.5505 82.9929 28.8997C82.655 29.2376 82.486 29.6657 82.486 30.1838C82.486 30.702 82.655 31.1301 82.9929 31.4793ZM94.6843 27.2212C95.4616 27.2212 96.1149 27.5029 96.6669 28.0773C97.2189 28.6518 97.4892 29.3503 97.4892 30.1838C97.4892 31.0062 97.2189 31.7158 96.6669 32.2903C96.1149 32.8648 95.4616 33.1464 94.6843 33.1464C93.8282 33.1464 93.1748 32.831 92.713 32.1889V33H91.4964V25.1147H92.713V28.1675C93.1748 27.5366 93.8282 27.2212 94.6843 27.2212ZM93.2199 31.4793C93.5578 31.8172 93.9859 31.9862 94.4928 31.9862C94.9997 31.9862 95.4278 31.8172 95.7657 31.4793C96.1037 31.1301 96.2726 30.702 96.2726 30.1838C96.2726 29.6657 96.1037 29.2376 95.7657 28.8997C95.4278 28.5505 94.9997 28.3815 94.4928 28.3815C93.9859 28.3815 93.5578 28.5505 93.2199 28.8997C92.882 29.2376 92.713 29.6657 92.713 30.1838C92.713 30.702 92.882 31.1301 93.2199 31.4793ZM100.726 31.4567L102.168 27.3677H103.463L101.301 33.1802C100.76 34.6334 99.8475 35.3318 98.552 35.2529V34.1152C99.318 34.1603 99.7461 33.7885 100.05 33.0113L100.107 32.8986L97.7185 27.3677H99.0477L100.726 31.4567ZM110.848 33.1464C109.665 33.1464 108.674 32.7522 107.896 31.9749C107.119 31.1864 106.725 30.2176 106.725 29.0574C106.725 27.8971 107.119 26.9284 107.896 26.1511C108.674 25.3626 109.665 24.9683 110.848 24.9683C112.278 24.9683 113.563 25.6892 114.238 26.8495L113.112 27.5029C112.695 26.7256 111.839 26.2299 110.848 26.2299C110.003 26.2299 109.327 26.5003 108.798 27.0297C108.279 27.5592 108.02 28.2351 108.02 29.0574C108.02 29.8797 108.279 30.5556 108.798 31.085C109.327 31.6144 110.003 31.8848 110.848 31.8848C111.839 31.8848 112.706 31.3892 113.112 30.6119L114.238 31.254C113.912 31.8285 113.439 32.2903 112.83 32.6395C112.233 32.9775 111.569 33.1464 110.848 33.1464ZM119.686 28.1675V27.3677H120.902V33H119.686V32.1889C119.224 32.831 118.57 33.1464 117.714 33.1464C116.937 33.1464 116.284 32.8648 115.732 32.2903C115.18 31.7158 114.909 31.0062 114.909 30.1838C114.909 29.3503 115.18 28.6518 115.732 28.0773C116.284 27.5029 116.937 27.2212 117.714 27.2212C118.57 27.2212 119.224 27.5366 119.686 28.1675ZM116.633 31.4793C116.971 31.8172 117.399 31.9862 117.906 31.9862C118.413 31.9862 118.841 31.8172 119.179 31.4793C119.517 31.1301 119.686 30.702 119.686 30.1838C119.686 29.6657 119.517 29.2376 119.179 28.8997C118.841 28.5505 118.413 28.3815 117.906 28.3815C117.399 28.3815 116.971 28.5505 116.633 28.8997C116.295 29.2376 116.126 29.6657 116.126 30.1838C116.126 30.702 116.295 31.1301 116.633 31.4793ZM124.979 33.1464C124.134 33.1464 123.424 32.8648 122.85 32.2903C122.286 31.7158 122.005 31.0174 122.005 30.1838C122.005 29.339 122.286 28.6406 122.85 28.0773C123.424 27.5029 124.134 27.2212 124.979 27.2212C126.071 27.2212 127.04 27.7845 127.491 28.6744L126.443 29.2827C126.184 28.742 125.643 28.4153 124.967 28.4153C124.472 28.4153 124.055 28.5843 123.717 28.9222C123.39 29.2601 123.221 29.6769 123.221 30.1838C123.221 30.6907 123.39 31.1075 123.717 31.4455C124.055 31.7834 124.472 31.9524 124.967 31.9524C125.632 31.9524 126.195 31.6144 126.466 31.085L127.513 31.682C127.029 32.5832 126.071 33.1464 124.979 33.1464ZM131.535 27.3677V28.5392H130.139V31.2427C130.139 31.9637 130.612 31.9524 131.535 31.9073V33C129.677 33.2253 128.922 32.7184 128.922 31.2427V28.5392H127.886V27.3677H128.922V26.1511L130.139 25.7906V27.3677H131.535ZM136.49 30.3866V27.3677H137.707V33H136.49V32.2791C136.118 32.8536 135.544 33.1464 134.744 33.1464C133.449 33.1464 132.581 32.2678 132.581 30.8259V27.3677H133.798V30.702C133.798 31.5469 134.282 32.0087 135.059 32.0087C135.915 32.0087 136.49 31.4793 136.49 30.3866ZM140.189 28.9222C140.189 29.2939 140.662 29.4854 141.248 29.6544C142.115 29.8459 143.242 30.2064 143.219 31.4117C143.219 31.9524 143.005 32.3804 142.588 32.6846C142.171 32.9887 141.653 33.1464 141.022 33.1464C139.907 33.1464 139.085 32.6508 138.724 31.8285L139.772 31.2202C139.964 31.7609 140.38 32.0312 141.022 32.0312C141.664 32.0312 141.98 31.8172 141.98 31.4004C141.98 31.04 141.507 30.8259 140.91 30.6795C140.065 30.4655 138.927 30.1275 138.95 28.9447C138.95 28.4266 139.141 28.0098 139.535 27.6944C139.93 27.3789 140.425 27.2212 141.011 27.2212C141.946 27.2212 142.701 27.6606 143.095 28.3928L142.07 28.9673C141.879 28.5392 141.518 28.3252 141.011 28.3252C140.549 28.3252 140.189 28.5279 140.189 28.9222Z" fill="#262626"/>
<path d="M106.965 17H104.193L100.937 11.39H97.945V17H95.415V1.6H101.575C102.961 1.6 104.127 2.084 105.073 3.052C106.041 3.998 106.525 5.164 106.525 6.55C106.525 8.508 105.293 10.29 103.467 11.016L106.965 17ZM101.575 3.976H97.945V9.124H101.575C102.917 9.124 103.995 7.98 103.995 6.55C103.995 5.12 102.917 3.976 101.575 3.976ZM118.799 12.512H110.043C110.395 14.184 111.737 15.108 113.563 15.108C114.817 15.108 115.763 14.646 116.401 13.744L118.359 14.888C117.281 16.494 115.675 17.286 113.541 17.286C111.759 17.286 110.307 16.736 109.207 15.658C108.107 14.558 107.557 13.172 107.557 11.5C107.557 9.85 108.107 8.486 109.185 7.386C110.263 6.264 111.671 5.714 113.365 5.714C114.971 5.714 116.291 6.286 117.325 7.408C118.359 8.53 118.887 9.916 118.887 11.522C118.887 11.764 118.865 12.094 118.799 12.512ZM110.021 10.576H116.489C116.159 8.794 114.905 7.87 113.343 7.87C111.583 7.87 110.351 8.904 110.021 10.576ZM124.948 14.36L128.006 6H130.602L126.312 17H123.562L119.272 6H121.868L124.948 14.36ZM134.351 3.91C133.757 4.504 132.833 4.504 132.217 3.91C131.623 3.294 131.623 2.37 132.217 1.776C132.811 1.16 133.779 1.16 134.373 1.776C134.967 2.37 134.967 3.294 134.351 3.91ZM134.483 17H132.107V6H134.483V17ZM147.867 12.512H139.111C139.463 14.184 140.805 15.108 142.631 15.108C143.885 15.108 144.831 14.646 145.469 13.744L147.427 14.888C146.349 16.494 144.743 17.286 142.609 17.286C140.827 17.286 139.375 16.736 138.275 15.658C137.175 14.558 136.625 13.172 136.625 11.5C136.625 9.85 137.175 8.486 138.253 7.386C139.331 6.264 140.739 5.714 142.433 5.714C144.039 5.714 145.359 6.286 146.393 7.408C147.427 8.53 147.955 9.916 147.955 11.522C147.955 11.764 147.933 12.094 147.867 12.512ZM139.089 10.576H145.557C145.227 8.794 143.973 7.87 142.411 7.87C140.651 7.87 139.419 8.904 139.089 10.576ZM160.132 13.59L162.288 6H164.796L161.342 17H159.01L156.722 9.586L154.412 17H152.08L148.626 6H151.134L153.268 13.59L155.578 6H157.844L160.132 13.59Z" fill="#404ED1"/>
<g clip-path="url(#clip0_128_616)">
<path d="M19.7438 29.5479C18.302 29.5479 16.8533 29.327 15.4388 28.8814C11.8033 27.7359 8.83154 25.2432 7.07085 21.8624C5.31009 18.4818 4.97142 14.6178 6.11679 10.9823C7.2623 7.34678 9.75498 4.37498 13.1357 2.61428C20.1146 -1.02026 28.7493 1.70027 32.3838 8.67916C32.657 9.2037 32.4532 9.85049 31.9286 10.1236C31.4042 10.3967 30.7574 10.1931 30.4842 9.66841C27.3952 3.73715 20.0566 1.42475 14.1251 4.5139C11.2517 6.01036 9.13322 8.53612 8.15958 11.626C7.18593 14.7159 7.47387 17.9999 8.97033 20.8732C10.4668 23.7466 12.9925 25.8651 16.0824 26.8387C19.1722 27.8122 22.4563 27.5244 25.3296 26.028C28.3515 24.4542 30.5839 21.661 31.4546 18.3645C31.7484 17.2525 31.883 16.1077 31.8547 14.962C31.8402 14.3708 32.3076 13.8797 32.8988 13.865C33.4921 13.8521 33.9812 14.3179 33.9959 14.9091C34.0291 16.2572 33.8709 17.6036 33.5254 18.9114C32.5011 22.7896 29.8745 26.0758 26.319 27.9275C24.2536 29.0029 22.0075 29.5478 19.7438 29.5479Z" fill="#404ED1"/>
<path d="M19.7278 22.6479C23.8023 22.6479 27.1054 19.3448 27.1054 15.2702C27.1054 11.1957 23.8023 7.89258 19.7278 7.89258C15.6532 7.89258 12.3501 11.1957 12.3501 15.2702C12.3501 19.3448 15.6532 22.6479 19.7278 22.6479Z" fill="#C9CDF2"/>
<path d="M19.7273 23.7188C15.0688 23.7188 11.2788 19.9288 11.2788 15.2703C11.2788 10.6118 15.0689 6.82178 19.7273 6.82178C24.3858 6.82178 28.1758 10.6118 28.1758 15.2703C28.1758 19.9289 24.3858 23.7188 19.7273 23.7188ZM19.7273 8.96364C16.2498 8.96364 13.4205 11.7929 13.4205 15.2704C13.4205 18.748 16.2497 21.5772 19.7273 21.5772C23.2049 21.5772 26.0341 18.748 26.0341 15.2704C26.0341 11.7928 23.2049 8.96364 19.7273 8.96364Z" fill="#404ED1"/>
<path d="M3.75375 34.9973C2.76158 34.9973 1.80586 34.6041 1.0995 33.8978C0.334369 33.1326 -0.0634036 32.0745 0.0082486 30.9948C0.0799008 29.9151 0.614072 28.9188 1.47363 28.2614L5.86122 24.9063C6.28761 24.5802 6.88945 24.6202 7.26896 24.9996L9.99765 27.7283C10.3772 28.1078 10.4171 28.7098 10.091 29.1361L6.73585 33.5236C6.07843 34.3832 5.08221 34.9174 4.00244 34.989C3.9195 34.9945 3.83643 34.9973 3.75375 34.9973ZM6.41743 27.1769L2.77466 29.9626C2.39993 30.2491 2.17661 30.666 2.14533 31.1365C2.11405 31.607 2.28047 32.0498 2.61396 32.3833C2.94745 32.7168 3.38991 32.8832 3.8608 32.8519C4.33135 32.8207 4.74825 32.5973 5.03459 32.2227L7.82033 28.5798L6.41743 27.1769Z" fill="#404ED1"/>
</g>
<defs>
<clipPath id="clip0_128_616">
<rect width="34" height="34" fill="white" transform="translate(0 1)"/>
</clipPath>
</defs>
</svg>
